<?xml version="1.0" standalone="no"?>
<!DOCTYPE svg PUBLIC "-//W3C//DTD SVG 20010904//EN"
 "http://www.w3.org/TR/2001/REC-SVG-20010904/DTD/svg10.dtd">
<svg version="1.0" xmlns="http://www.w3.org/2000/svg"
 width="378.000000pt" height="369.000000pt" viewBox="0 0 378.000000 369.000000"
 preserveAspectRatio="xMidYMid meet">
<metadata>
Created by potrace 1.16, written by Peter Selinger 2001-2019
</metadata>
<g transform="translate(0.000000,369.000000) scale(0.100000,-0.100000)"
fill="#000000" stroke="none">
<path d="M2076 2799 c-15 -9 -16 -13 -5 -20 7 -4 10 -11 6 -16 -4 -4 -16 -2
-27 5 -24 15 -35 0 -20 -29 7 -13 17 -18 27 -15 18 7 46 -12 37 -25 -9 -16 25
-69 41 -63 8 4 26 -1 40 -10 30 -20 36 -20 29 -2 -3 8 -1 17 5 21 6 3 11 1 11
-4 0 -6 14 -11 30 -11 28 0 30 2 20 20 -6 12 -22 25 -36 30 -13 5 -24 14 -24
19 0 5 -9 13 -20 16 -11 3 -20 12 -20 19 0 21 -25 66 -37 66 -6 0 -17 2 -25 5
-7 2 -21 0 -32 -6z"/>
<path d="M2808 2521 c-11 -11 -15 -25 -12 -39 5 -17 1 -22 -20 -28 -36 -9 -33
-35 11 -113 2 -2 9 2 18 9 8 7 15 9 15 6 0 -4 6 -1 14 6 8 7 13 18 13 23 -1 6
3 9 9 8 8 -2 9 8 4 32 -7 30 -5 34 14 37 12 2 29 -6 38 -17 17 -19 17 -19 18
23 0 38 -2 42 -25 42 -15 0 -38 6 -53 14 -24 12 -29 11 -44 -3z"/>
<path d="M3046 2492 c-4 -6 -2 -21 4 -32 7 -13 7 -20 1 -20 -6 0 -8 -7 -5 -15
4 -11 2 -13 -9 -9 -22 8 -30 -12 -12 -29 8 -9 15 -17 15 -20 0 -6 -45 -2 -50
5 -3 3 -14 0 -25 -8 -16 -12 -17 -16 -6 -23 10 -6 10 -10 1 -16 -15 -9 -23 0
-25 27 -2 26 -20 35 -28 13 -4 -8 -1 -15 4 -15 6 0 9 -8 7 -18 -3 -10 1 -23 9
-30 17 -17 8 -32 -16 -27 -10 2 -18 -3 -18 -11 0 -8 6 -13 13 -10 8 3 16 1 19
-4 13 -20 24 -9 27 28 3 36 4 37 41 34 30 -3 37 0 38 15 0 17 1 17 8 -1 6 -16
9 -17 22 -4 8 8 21 13 29 11 10 -3 9 1 -4 11 -27 22 -14 48 21 41 16 -3 22 -2
15 1 -6 3 -9 11 -5 17 4 6 0 8 -9 4 -10 -3 -18 1 -22 11 -24 68 -33 85 -40 74z"/>
<path d="M2650 2344 c0 -6 -13 -17 -30 -24 -16 -7 -28 -16 -27 -20 1 -5 -7
-16 -18 -25 -20 -16 -20 -16 3 -11 13 2 21 2 18 -1 -3 -4 -1 -13 6 -20 9 -11
9 -17 -3 -23 -8 -6 -15 -6 -17 0 -7 19 -23 10 -18 -8 4 -13 -4 -29 -24 -50
-36 -38 -37 -48 -9 -63 17 -8 20 -8 14 1 -6 9 0 11 24 8 26 -4 31 -1 31 17 0
11 -6 27 -12 35 -11 12 -10 12 5 1 15 -12 17 -11 18 10 1 13 1 28 0 32 -1 5 4
5 10 1 6 -3 15 0 20 7 8 12 11 12 18 -1 6 -8 13 -11 17 -7 4 4 13 2 21 -4 10
-9 13 -8 13 5 0 9 -6 19 -14 22 -11 4 -6 13 17 34 l32 29 -30 1 c-26 1 -27 3
-10 10 11 5 29 11 40 15 16 5 17 8 5 15 -8 5 -18 6 -22 4 -4 -3 -8 0 -8 5 0
17 -30 13 -36 -4 -6 -14 -8 -13 -20 2 -7 10 -14 13 -14 7z"/>
<path d="M1294 2098 c1 -23 0 -24 -68 -27 -16 -1 -17 -4 -8 -13 25 -25 13 -35
-40 -32 -29 2 -46 1 -36 -2 31 -10 28 -31 -5 -31 -33 0 -67 -32 -67 -64 0 -10
-5 -19 -11 -19 -8 0 -8 -5 1 -15 8 -9 9 -15 2 -15 -6 0 -14 5 -17 10 -3 6 -11
10 -16 10 -6 0 -8 -4 -5 -9 3 -5 -1 -12 -10 -15 -12 -4 -15 -15 -12 -37 4 -28
3 -30 -21 -25 -14 3 -20 3 -13 0 17 -8 15 -27 -3 -20 -10 4 -15 -1 -15 -14 0
-10 -8 -24 -17 -29 -11 -6 -13 -11 -5 -11 7 0 10 -4 7 -10 -3 -5 -3 -10 2 -10
4 0 16 -12 26 -25 16 -23 17 -27 3 -47 -21 -30 -20 -65 2 -77 9 -5 35 -12 55
-16 34 -7 38 -10 32 -32 -7 -30 35 -88 70 -97 34 -9 31 -25 -5 -32 -16 -4 -27
-11 -24 -16 4 -5 -16 -7 -48 -3 l-53 6 30 -21 30 -20 -30 0 c-43 0 -62 -14
-47 -33 10 -12 9 -15 -5 -13 -13 1 -18 -6 -18 -26 1 -22 -2 -25 -16 -17 -10 5
-21 18 -24 30 l-7 21 -19 -21 c-11 -11 -31 -24 -44 -27 -14 -3 -25 -10 -25
-15 0 -5 -9 -9 -19 -9 -11 0 -22 -6 -24 -12 -4 -10 -6 -10 -6 0 -1 15 -31 16
-31 1 0 -5 -4 -8 -8 -5 -11 7 -29 -25 -26 -46 1 -12 -4 -18 -16 -18 -31 0 -45
-43 -27 -82 9 -20 47 -25 47 -6 0 22 67 -56 79 -92 6 -21 22 -42 39 -51 33
-18 92 -14 92 7 0 8 7 14 15 14 9 0 19 10 24 22 l8 23 7 -22 c4 -13 13 -20 20
-17 15 6 40 54 32 61 -3 3 2 12 11 21 14 14 14 17 -3 29 -16 12 -16 13 -1 13
9 0 16 5 14 11 -2 11 28 24 83 35 14 3 29 9 34 14 19 19 -2 19 -53 -1 -30 -11
-58 -18 -64 -16 -6 2 19 14 56 27 54 19 68 29 76 51 7 20 6 31 -1 35 -6 4 -8
3 -4 -4 10 -16 -13 -25 -29 -12 -22 18 -18 28 13 33 21 3 19 4 -11 6 -21 0
-36 5 -32 10 3 5 -1 15 -8 23 -7 7 -13 23 -14 36 -2 19 1 21 13 12 8 -7 14
-20 14 -28 0 -14 1 -14 13 0 6 9 26 19 42 23 44 12 49 12 62 3 22 -17 107 35
186 114 42 43 77 74 77 68 0 -23 20 3 31 40 14 45 39 62 40 27 0 -21 1 -21 10
2 10 26 3 100 -14 141 -6 14 -9 29 -8 34 1 5 -5 6 -13 3 -8 -3 -17 -1 -20 6
-2 7 -5 -18 -5 -55 -1 -69 -29 -163 -55 -183 -7 -6 -16 -19 -20 -30 -13 -41
-95 -114 -143 -129 -18 -6 -22 -4 -17 8 5 13 -3 16 -44 16 -28 0 -53 4 -56 8
-3 5 8 6 25 4 36 -5 76 19 92 56 6 15 14 29 17 32 3 3 16 19 28 36 18 26 27
30 49 26 16 -3 31 -10 35 -16 5 -6 8 -2 8 10 0 17 -5 20 -29 16 -25 -3 -30 -1
-28 17 1 12 5 21 9 21 4 0 7 25 6 55 -1 33 4 61 11 68 10 9 11 8 6 -5 -4 -9 0
-26 8 -38 13 -18 14 -15 11 37 -2 32 -8 59 -14 61 -5 2 -10 9 -10 16 0 7 -11
23 -25 36 -23 22 -25 40 -4 40 12 0 50 -63 66 -110 l12 -35 -6 45 c-3 25 -17
64 -30 88 -27 46 -16 57 16 16 12 -15 21 -24 21 -20 0 11 -46 80 -62 94 -24
20 -101 58 -132 66 -27 7 -28 8 -13 23 15 15 18 15 34 1 10 -8 23 -14 29 -11
14 5 158 -134 178 -172 9 -18 15 -23 16 -13 0 9 13 21 30 27 35 12 38 21 10
39 -11 7 -20 19 -20 27 0 8 -7 15 -15 15 -8 0 -15 9 -15 19 0 11 -4 23 -10 26
-5 3 -10 15 -10 27 0 15 -4 18 -17 13 -36 -15 -66 -18 -59 -6 4 6 1 11 -7 11
-19 0 -86 52 -87 68 0 6 -4 12 -8 12 -5 0 -8 -10 -8 -22z"/>
<path d="M2624 2051 c-8 -7 -84 -33 -109 -37 -27 -5 -28 -7 -5 -14 24 -9 24
-9 -4 -7 -20 1 -39 -7 -63 -30 -19 -18 -32 -36 -30 -40 3 -5 -1 -14 -9 -21 -8
-7 -14 -9 -14 -5 0 4 -4 2 -9 -6 -5 -8 -7 -20 -4 -27 3 -9 13 -4 30 17 18 21
29 27 36 20 12 -12 -15 -47 -45 -57 -11 -3 -21 -18 -25 -35 -7 -37 -23 -48
-24 -17 -1 13 -6 1 -11 -27 -12 -67 -28 -81 -28 -25 0 24 -3 40 -6 37 -13 -13
-4 -139 11 -154 12 -11 15 -12 15 -1 1 7 13 -10 28 -38 32 -60 68 -104 104
-128 26 -17 26 -17 21 4 -3 11 -9 23 -14 26 -19 11 -8 24 22 24 16 0 28 4 24
9 -8 15 15 25 28 12 6 -6 21 -11 34 -11 13 0 23 -6 23 -14 0 -7 6 -18 13 -24
14 -12 120 -25 113 -14 -8 13 20 41 53 55 60 25 102 112 69 145 -8 8 -8 12 -1
12 6 0 13 7 16 14 4 10 1 13 -9 9 -15 -5 -44 13 -44 28 0 5 11 11 24 15 14 3
27 12 30 20 8 20 -4 45 -18 37 -6 -3 -8 -2 -3 2 4 5 1 16 -5 25 -7 9 4 -2 25
-24 l37 -41 -20 39 c-11 22 -31 52 -45 66 -20 21 -23 29 -12 33 16 6 60 -29
70 -55 3 -10 11 -18 17 -18 12 0 11 1 -28 65 -16 26 -19 35 -8 26 9 -8 19 -12
21 -9 15 15 -76 58 -155 73 -47 10 -53 14 -39 31 9 11 8 14 -8 14 -10 0 -28 7
-39 15 -12 7 -25 10 -30 6z"/>
<path d="M1954 1939 c-3 -5 -1 -9 5 -9 6 0 21 -10 34 -22 13 -13 47 -42 75
-66 29 -24 52 -51 52 -61 0 -9 5 -22 10 -27 6 -6 13 -47 16 -91 4 -69 2 -87
-15 -122 -23 -44 -27 -66 -11 -56 17 11 50 82 61 134 12 59 -2 147 -32 200
-23 39 -18 94 7 84 9 -3 14 2 14 16 0 20 -4 21 -52 15 -29 -3 -77 -2 -106 4
-29 5 -55 6 -58 1z"/>
<path d="M2010 1400 c-45 -24 -175 -23 -190 0 -6 9 -10 10 -10 3 0 -16 -79
-32 -109 -21 -21 8 -22 7 -11 -7 8 -10 9 -15 1 -15 -21 0 -11 -28 20 -55 25
-20 38 -25 60 -20 20 5 29 3 29 -6 0 -7 8 -21 17 -31 16 -18 16 -18 0 -12 -13
5 -16 2 -11 -10 3 -9 11 -16 16 -16 6 0 8 -6 5 -14 -10 -24 31 -51 72 -47 11
1 11 4 1 16 -7 8 -10 15 -6 15 4 0 0 14 -9 30 -9 17 -12 30 -8 29 19 -3 33 2
33 11 0 13 -77 49 -106 50 -11 0 -31 11 -44 25 -13 14 -19 25 -13 25 6 0 16
-7 23 -15 7 -8 17 -12 22 -8 6 3 1 14 -13 24 -24 19 -24 19 14 4 28 -12 42
-13 52 -5 8 7 37 8 81 4 48 -5 65 -4 60 4 -4 6 6 18 23 27 16 8 33 19 36 25 7
12 9 12 -35 -10z"/>
<path d="M1444 1397 c-29 -16 -124 -112 -124 -125 0 -7 -5 -12 -11 -12 -6 0
-9 -7 -5 -15 3 -8 2 -14 -2 -13 -4 0 -18 -4 -32 -9 l-25 -11 30 -11 c17 -6 43
-18 58 -27 16 -9 31 -13 34 -10 4 3 14 -1 24 -10 22 -20 109 -26 109 -7 0 7 5
13 10 13 6 0 10 7 10 15 0 8 14 29 30 47 17 17 30 27 30 22 0 -4 5 -3 11 3 15
15 2 83 -16 83 -7 0 -22 12 -32 26 -25 34 -63 26 -63 -13 0 -42 -52 -134 -67
-119 -4 4 0 12 10 17 9 6 17 15 17 20 0 6 -5 7 -10 4 -7 -4 -8 3 -4 22 8 31
48 89 72 102 11 6 9 9 -11 13 -14 3 -33 0 -43 -5z"/>
<path d="M1605 1320 c18 -78 26 -149 21 -182 -6 -35 -4 -37 38 -58 25 -11 50
-28 58 -37 11 -15 10 -16 -9 -11 -25 7 -33 -16 -10 -25 6 -3 2 -6 -10 -6 -22
-1 -34 -21 -13 -21 6 0 10 -6 10 -14 0 -7 16 -30 35 -50 19 -21 35 -42 35 -48
0 -6 -3 -8 -7 -5 -3 4 -13 -3 -21 -15 -15 -21 -16 -21 -26 21 -6 23 -15 42
-21 42 -17 -1 -17 -51 0 -78 10 -14 12 -22 6 -18 -6 3 -19 -3 -29 -14 -9 -11
-34 -26 -54 -35 l-36 -14 15 51 c8 29 19 60 25 70 5 10 7 23 4 30 -3 8 -5 7
-5 -2 -1 -8 -11 -25 -23 -38 -11 -12 -23 -35 -25 -50 -8 -74 -11 -107 -6 -95
2 6 16 12 29 12 13 0 24 5 24 10 0 6 5 10 11 10 5 0 7 -4 4 -10 -3 -5 1 -10
10 -10 12 0 15 -6 9 -22 -3 -13 -12 -30 -19 -38 -13 -16 -6 -54 10 -48 13 4
16 28 4 28 -6 0 -7 5 -3 11 5 8 10 6 16 -5 5 -9 13 -14 19 -11 5 4 9 1 9 -5 0
-6 5 -8 10 -5 6 3 10 1 10 -4 0 -6 -5 -11 -11 -11 -5 0 -7 -5 -3 -11 3 -6 10
-7 14 -2 13 14 20 72 10 78 -6 3 -10 15 -10 26 0 11 -7 22 -15 25 -21 8 -19
52 3 56 9 2 29 -8 44 -22 29 -30 58 -35 58 -11 0 14 2 14 11 1 8 -12 9 -9 5
13 -4 15 -2 27 3 27 6 0 8 6 5 14 -3 8 2 16 13 19 15 4 15 5 -3 6 -12 0 -25 8
-28 17 -8 22 -8 26 4 19 6 -4 24 -10 39 -15 l29 -8 -15 36 c-8 21 -15 39 -14
42 0 3 -3 5 -9 4 -5 -1 -22 -2 -36 -2 -23 -2 -25 -4 -14 -17 27 -33 1 -23 -30
12 -29 31 -30 35 -12 31 28 -8 28 3 1 20 -27 17 -18 27 10 12 20 -10 29 -1 14
13 -3 4 -5 35 -4 70 2 68 -3 81 -36 91 -17 6 -22 2 -25 -15 -5 -37 -22 -31
-41 14 -11 27 -15 54 -11 73 4 21 1 36 -10 47 -9 9 -21 26 -26 39 -10 23 -11
23 -5 -2z"/>
<path d="M2242 974 c-7 -33 -11 -69 -9 -82 4 -25 28 -57 47 -64 6 -2 13 -16
13 -31 2 -34 10 -34 32 -1 21 33 16 112 -9 126 -9 5 -16 22 -16 39 0 22 -4 29
-17 27 -11 -2 -19 6 -22 21 -5 18 -9 11 -19 -35z"/>
<path d="M1007 875 c-9 -7 -14 -15 -10 -18 3 -4 1 -7 -5 -7 -7 0 -12 -9 -12
-20 0 -11 5 -20 10 -20 6 0 10 -7 10 -15 0 -8 4 -15 9 -15 5 0 8 -8 7 -17 -1
-13 6 -18 24 -18 14 0 31 -4 37 -8 7 -4 21 -4 31 2 10 5 24 6 33 1 22 -13 64
17 50 34 -6 7 -7 17 -3 21 4 5 2 5 -5 1 -7 -4 -21 4 -34 17 -13 16 -28 23 -40
20 -16 -5 -18 -1 -13 24 6 29 5 30 -33 30 -22 0 -47 -5 -56 -12z"/>
</g>
</svg>
